<?xml version="1.0" encoding="UTF-8"?>
<svg width="108px" height="94px" viewBox="0 0 108 94" version="1.1" xmlns="http://www.w3.org/2000/svg" xmlns:xlink="http://www.w3.org/1999/xlink">
    <!-- Generator: Sketch 58 (84663) - https://sketch.com -->
    <title>noun_Caution_3362991</title>
    <desc>Created with Sketch.</desc>
    <g id="Wireframe-31" stroke="none" stroke-width="1" fill="none" fill-rule="evenodd">
        <g id="Mobile" transform="translate(-82.000000, -246.000000)">
            <g id="Group-7" transform="translate(0.000000, 127.000000)">
                <g id="noun_Caution_3362991" transform="translate(82.000000, 119.000000)">
                    <g id="Group">
                        <polygon id="Rectangle" fill="#FFDF00" fill-rule="nonzero" points="49.5548457 8.09271523 56.1284331 4.35761589 105.628701 88.5947618 3.95560923 86.5298013"></polygon>
                        <path d="M62.3046046,4.74747475 L106.397063,79.7575758 C110.23119,86.0875421 105.758042,94 98.0897883,94 L9.90487129,94 C2.55612821,94 -2.23653032,86.0875421 1.59759651,79.7575758 L1.59759651,79.7575758 L45.690055,4.74747475 C49.5241818,-1.58249158 58.7899883,-1.58249158 62.3046046,4.74747475 Z M55.1712317,8.80362538 C54.5300262,7.85574518 52.9270124,7.85574518 52.2858069,8.80362538 L8.04262713,84.0021208 L8.04262713,84.0021208 C7.40142162,84.950001 8.04262713,86.5298013 9.32503814,86.5298013 L97.8113977,86.5298013 C99.0938087,86.5298013 100.055617,84.950001 99.4144114,84.0021208 L55.1712317,8.80362538 Z" id="Shape" fill="#000000" fill-rule="nonzero"></path>
                        <path d="M52.050419,28.013245 L55.8946927,28.013245 C57.1761172,28.013245 58.1371856,28.3297789 59.098254,29.2793804 C60.0593225,30.2289819 60.3796786,31.1785835 60.3796786,32.4447188 L58.4575418,61.2492985 C58.4575418,63.4650354 56.5354049,65.3642384 54.292912,65.3642384 L53.6521997,65.3642384 C51.4097068,65.3642384 49.8079261,63.4650354 49.4875699,61.2492985 L47.8857892,32.4447188 C47.5654331,31.1785835 48.2061454,30.2289819 48.8468577,29.2793804 C49.8079261,28.3297789 50.7689945,28.013245 52.050419,28.013245 Z" id="Path" fill="#000000"></path>
                        <ellipse id="Oval" fill="#000000" cx="53.7756512" cy="74.3907285" rx="5.97507236" ry="5.91390728"></ellipse>
                    </g>
                </g>
            </g>
        </g>
    </g>
</svg>